<?xml version="1.0" encoding="UTF-8"?>
<svg version="1.1" xmlns="http://www.w3.org/2000/svg" width="256" height="256">
<path d="M0 0 C1.15689331 -0.01377182 2.31378662 -0.02754364 3.5057373 -0.04173279 C5.9533208 -0.0649726 8.40096714 -0.08225435 10.84863281 -0.09399414 C14.55394468 -0.12080572 18.25634927 -0.19572441 21.9609375 -0.27148438 C34.94850181 -0.41435674 45.28853953 -0.33785176 56.09375 7.44140625 C57.38454468 8.35200806 57.38454468 8.35200806 58.70141602 9.28100586 C60.22857205 10.38777546 61.74959554 11.5030378 63.265625 12.625 C66.90392754 14.96175509 70.71875618 16.6713597 74.65625 18.44140625 C86.69223421 23.93051674 92.99625549 29.57279641 99.09277344 41.37548828 C100.21503911 43.54489943 101.34083947 45.71242464 102.46875 47.87890625 C103.0414563 48.98468018 103.0414563 48.98468018 103.62573242 50.11279297 C106.44067482 55.45341858 109.69938664 60.20752333 113.3671875 65.0078125 C118.02075825 71.567031 120.20254874 78.33710191 120.25488281 86.32055664 C120.26449036 87.50601578 120.2740979 88.69147491 120.28399658 89.91285706 C120.2903714 91.83157875 120.2903714 91.83157875 120.296875 93.7890625 C120.30111607 94.77244504 120.30111607 94.77244504 120.30544281 95.77569389 C120.32041809 99.25077591 120.32965573 102.72581665 120.33398438 106.20092773 C120.33944094 109.76244553 120.36341323 113.32357557 120.39195633 116.88497257 C120.41074257 119.64679498 120.41579689 122.40852739 120.41732025 125.17040825 C120.42175779 127.11276072 120.4403321 129.05506469 120.45928955 130.99732971 C120.43295327 141.59401688 119.21300575 150.81827502 112.40625 159.19140625 C108.74455075 163.99843613 105.58060484 168.83320262 102.78125 174.19140625 C102.45092773 174.82151611 102.12060547 175.45162598 101.78027344 176.10083008 C100.38044344 178.81326771 99.0492968 181.54095447 97.8046875 184.328125 C92.46883046 196.17953536 83.49403794 200.42942155 72.1315918 205.57226562 C63.37196826 209.60024945 54.95967753 214.57547872 48.09375 221.44140625 C46.09375 223.44140625 46.09375 223.44140625 44.1484375 223.63671875 C42.13020833 223.57161458 40.11197917 223.50651042 38.09375 223.44140625 C37.76375 224.10140625 37.43375 224.76140625 37.09375 225.44140625 C36.52454834 225.41111328 35.95534668 225.38082031 35.36889648 225.34960938 C32.75644359 225.21165106 30.14385204 225.07650936 27.53125 224.94140625 C26.63599609 224.89371094 25.74074219 224.84601563 24.81835938 224.796875 C20.89595445 224.59572603 16.99069402 224.41291527 13.0625 224.44140625 C10.09375 224.44140625 10.09375 224.44140625 8.15625 223.94140625 C4.82100218 223.13286132 1.51657 223.38435925 -1.90625 223.44140625 C-2.23625 224.10140625 -2.56625 224.76140625 -2.90625 225.44140625 C-4.22625 225.11140625 -5.54625 224.78140625 -6.90625 224.44140625 C-6.90625 224.11140625 -6.90625 223.78140625 -6.90625 223.44140625 C-11.88908716 222.30089019 -16.85093132 221.21914759 -21.90625 220.44140625 C-22.23625 219.45140625 -22.56625 218.46140625 -22.90625 217.44140625 C-24.62146778 216.39321761 -26.34092402 215.34729172 -28.1171875 214.40625 C-30.43224996 213.15773378 -32.49388352 211.87970773 -34.30371094 209.95605469 C-36.24195909 208.12410899 -38.10586269 207.27539409 -40.546875 206.20703125 C-41.45308594 205.79710937 -42.35929687 205.3871875 -43.29296875 204.96484375 C-45.18299043 204.12426112 -47.07618374 203.29076937 -48.97265625 202.46484375 C-57.69835318 198.49076396 -63.27505902 193.83594277 -67.34375 185.00390625 C-67.83746094 183.95332031 -68.33117187 182.90273437 -68.83984375 181.8203125 C-69.36771484 180.64275391 -69.36771484 180.64275391 -69.90625 179.44140625 C-70.56625 179.44140625 -71.22625 179.44140625 -71.90625 179.44140625 C-72.03 178.63703125 -72.15375 177.83265625 -72.28125 177.00390625 C-72.4875 176.15828125 -72.69375 175.31265625 -72.90625 174.44140625 C-73.56625 174.11140625 -74.22625 173.78140625 -74.90625 173.44140625 C-75.009375 172.74015625 -75.1125 172.03890625 -75.21875 171.31640625 C-76.17091293 167.33463399 -78.18866363 164.47591231 -80.90625 161.44140625 C-82.02 160.88453125 -82.02 160.88453125 -83.15625 160.31640625 C-83.73375 160.02765625 -84.31125 159.73890625 -84.90625 159.44140625 C-85.29796753 157.78748779 -85.62682545 156.11795354 -85.90625 154.44140625 C-87.2979376 152.30795857 -87.2979376 152.30795857 -88.90625 150.44140625 C-90.90625 147.44140625 -90.90625 147.44140625 -90.53125 144.75390625 C-90.325 143.99078125 -90.11875 143.22765625 -89.90625 142.44140625 C-90.56625 142.44140625 -91.22625 142.44140625 -91.90625 142.44140625 C-91.93512512 138.79558938 -91.95300585 135.14980162 -91.96875 131.50390625 C-91.97712891 130.46298828 -91.98550781 129.42207031 -91.99414062 128.34960938 C-91.99897461 126.86557617 -91.99897461 126.86557617 -92.00390625 125.3515625 C-92.00914307 124.43511963 -92.01437988 123.51867676 -92.01977539 122.57446289 C-91.90625 120.44140625 -91.90625 120.44140625 -90.90625 119.44140625 C-91.00194615 117.20952506 -91.16139951 114.98038322 -91.34375 112.75390625 C-92.12167503 102.32313687 -92.00019945 91.89436638 -91.90625 81.44140625 C-90.91625 80.94640625 -90.91625 80.94640625 -89.90625 80.44140625 C-89.52076122 79.05906758 -89.19958175 77.65869032 -88.90625 76.25390625 C-87.54535113 71.39059252 -85.22237683 67.7464091 -82.21875 63.75390625 C-78.51211717 58.80853888 -75.21638288 53.82276858 -72.28125 48.37890625 C-71.93876221 47.75991455 -71.59627441 47.14092285 -71.2434082 46.50317383 C-69.36780412 42.93781876 -68.74412239 40.4311552 -68.90625 36.44140625 C-66.96875 34.12890625 -66.96875 34.12890625 -65.53515625 32.87109375 C-63.85429254 31.44774838 -63.85429254 31.44774838 -62.30859375 29.69921875 C-56.45514289 23.71355443 -49.58809246 20.76609924 -42.07592773 17.38208008 C-35.20616108 14.22710752 -29.11920292 10.52576555 -23.05639648 6.02026367 C-22.16416382 5.36247925 -22.16416382 5.36247925 -21.25390625 4.69140625 C-20.74867432 4.3046875 -20.24344238 3.91796875 -19.72290039 3.51953125 C-13.50286719 -0.17186327 -7.01779637 0.07381808 0 0 Z M-89.90625 103.44140625 C-89.90625 108.72140625 -89.90625 114.00140625 -89.90625 119.44140625 C-89.57625 119.44140625 -89.24625 119.44140625 -88.90625 119.44140625 C-88.90625 114.16140625 -88.90625 108.88140625 -88.90625 103.44140625 C-89.23625 103.44140625 -89.56625 103.44140625 -89.90625 103.44140625 Z M14.09375 221.44140625 C14.09375 221.77140625 14.09375 222.10140625 14.09375 222.44140625 C16.07375 222.44140625 18.05375 222.44140625 20.09375 222.44140625 C20.09375 222.11140625 20.09375 221.78140625 20.09375 221.44140625 C18.11375 221.44140625 16.13375 221.44140625 14.09375 221.44140625 Z " fill="#DCD2ED" transform="translate(112.90625,16.55859375)"/>
<path d="M0 0 C9.5474617 7.46891416 17.45117231 15.84295105 20 28 C21.61892841 42.65025986 19.26860631 54.77819984 10.07421875 66.58984375 C5.11385307 72.35358315 -0.06094406 75.95035121 -7 79 C-8.2684375 79.5878125 -8.2684375 79.5878125 -9.5625 80.1875 C-20.7066295 83.90220983 -32.35784654 82.50447585 -43 78 C-50.24440947 73.89093979 -56.31449533 69.10026873 -59.45703125 61.1484375 C-61.23069869 54.13032892 -60.91034841 46.94354052 -57.19140625 40.671875 C-55.33762113 38.07049785 -53.45041495 36.0605762 -51 34 C-50.47019531 33.53335938 -49.94039062 33.06671875 -49.39453125 32.5859375 C-43.2170694 27.87051886 -36.48536068 28.03386624 -29 29 C-25.03633554 30.27573033 -21.97278432 32.02721568 -19 35 C-18.75 38 -18.75 38 -19 41 C-21 43 -21 43 -23.25 43.3125 C-26 43 -26 43 -28.75 41.5 C-32.95975026 39.55703834 -36.43629163 39.11828175 -41 40 C-44.12714798 41.67312376 -46.23218854 43.98788489 -48.375 46.8125 C-49.82957541 51.90351395 -49.71015016 55.6323034 -47.3125 60.25 C-42.9694774 65.41467553 -37.80395896 69.26747104 -31.00024414 70.30493164 C-28.88652788 70.43752639 -26.805105 70.46789853 -24.6875 70.4375 C-23.94056885 70.42920166 -23.1936377 70.42090332 -22.42407227 70.41235352 C-13.31799126 70.13497587 -6.4927268 67.33874287 0.17578125 61.0625 C7.49356289 52.78886252 9.38731505 45.17762606 9.27734375 34.3515625 C8.60497288 26.22629198 4.74085627 18.75284136 -1 13 C-13.0501541 3.34378302 -26.68871572 -0.43425268 -41.8828125 0.75195312 C-55.43717847 2.33996464 -66.80278442 9.17847011 -76 19 C-82.72613696 27.79275537 -86.7888205 37.18349479 -88.60546875 48.06640625 C-89 50 -89 50 -90 51 C-95.37447573 51.46734572 -95.37447573 51.46734572 -97.69921875 49.73046875 C-99 48 -99 48 -98.9375 44.0625 C-96.40417672 27.58256543 -87.84924191 12.32553713 -74.36083984 2.42675781 C-52.17049874 -13.17835513 -23.09112293 -15.6602954 0 0 Z " fill="#E4357F" transform="translate(162,84)"/>
<path d="M0 0 C0.99 0.33 1.98 0.66 3 1 C1.5665848 2.15093925 0.12811091 3.29558035 -1.3125 4.4375 C-2.51326172 5.39462891 -2.51326172 5.39462891 -3.73828125 6.37109375 C-6 8 -6 8 -9 9 C-9.556875 9.598125 -10.11375 10.19625 -10.6875 10.8125 C-14.38382084 14.30901972 -18.70413577 16.32863364 -23.578125 17.75390625 C-32.12441746 20.28116702 -37.67259349 25.05277394 -43 32 C-44.37850903 34.83193703 -45.35785769 37.53938515 -46.23828125 40.55859375 C-47.24991609 43.8010131 -49.03758336 46.2526167 -51 49 C-51.309375 49.845625 -51.61875 50.69125 -51.9375 51.5625 C-53 54 -53 54 -55.3125 56.25 C-58.75986703 59.77753835 -60.77719368 63.63326113 -63 68 C-63.53882813 68.93070312 -64.07765625 69.86140625 -64.6328125 70.8203125 C-66.25568985 74.59466153 -66.33380576 77.3435885 -66.25 81.4375 C-66.23453125 82.69433594 -66.2190625 83.95117188 -66.203125 85.24609375 C-66.00618806 88.88563987 -65.5156728 92.39438308 -65 96 C-64.91254335 98.20699424 -64.86972859 100.41627991 -64.875 102.625 C-64.87242188 103.71039063 -64.86984375 104.79578125 -64.8671875 105.9140625 C-64.98865008 108.73628121 -65.41068003 111.24677077 -66 114 C-66.09003238 116.70097153 -66.09704174 119.30709176 -66 122 C-65.99484375 122.72574219 -65.9896875 123.45148438 -65.984375 124.19921875 C-65.56505536 132.78029558 -60.44109126 138.18692891 -55.3125 144.6875 C-51.52141863 149.49509109 -49.2061587 154.43225109 -46.90234375 160.0859375 C-45.84254638 162.33399253 -44.51785317 164.33921939 -43.1875 166.4375 C-41.18839223 169.97163694 -40.93031278 170.61355269 -41.6875 174.8125 C-41.91566406 175.44800781 -42.14382812 176.08351562 -42.37890625 176.73828125 C-43.64435141 181.34641173 -43.14226745 186.25775178 -43 191 C-47.69267989 186.9590812 -49.7650674 182.73091655 -52 177 C-52.66 177 -53.32 177 -54 177 C-54.12375 176.195625 -54.2475 175.39125 -54.375 174.5625 C-54.58125 173.716875 -54.7875 172.87125 -55 172 C-55.66 171.67 -56.32 171.34 -57 171 C-57.103125 170.29875 -57.20625 169.5975 -57.3125 168.875 C-58.26466293 164.89322774 -60.28241363 162.03450606 -63 159 C-64.11375 158.443125 -64.11375 158.443125 -65.25 157.875 C-65.8275 157.58625 -66.405 157.2975 -67 157 C-67.39171753 155.34608154 -67.72057545 153.67654729 -68 152 C-69.3916876 149.86655232 -69.3916876 149.86655232 -71 148 C-73 145 -73 145 -72.625 142.3125 C-72.41875 141.549375 -72.2125 140.78625 -72 140 C-72.66 140 -73.32 140 -74 140 C-74.02887512 136.35418313 -74.04675585 132.70839537 -74.0625 129.0625 C-74.07087891 128.02158203 -74.07925781 126.98066406 -74.08789062 125.90820312 C-74.09272461 124.42416992 -74.09272461 124.42416992 -74.09765625 122.91015625 C-74.10289307 121.99371338 -74.10812988 121.07727051 -74.11352539 120.13305664 C-74 118 -74 118 -73 117 C-73.09569615 114.76811881 -73.25514951 112.53897697 -73.4375 110.3125 C-74.21542503 99.88173062 -74.09394945 89.45296013 -74 79 C-73.01 78.505 -73.01 78.505 -72 78 C-71.61451122 76.61766133 -71.29333175 75.21728407 -71 73.8125 C-69.63910113 68.94918627 -67.31612683 65.30500285 -64.3125 61.3125 C-60.60586717 56.36713263 -57.31013288 51.38136233 -54.375 45.9375 C-54.03251221 45.3185083 -53.69002441 44.6995166 -53.3371582 44.06176758 C-51.46155412 40.49641251 -50.83787239 37.98974895 -51 34 C-49.0625 31.6875 -49.0625 31.6875 -47.62890625 30.4296875 C-45.94804254 29.00634213 -45.94804254 29.00634213 -44.40234375 27.2578125 C-38.55220592 21.27553603 -31.68872298 18.32155948 -24.17626953 14.94726562 C-17.18553723 11.74374558 -11.02465154 7.93709336 -4.88647461 3.31518555 C-3.30535394 2.14288457 -1.65734807 1.06180484 0 0 Z M-72 101 C-72 106.28 -72 111.56 -72 117 C-71.67 117 -71.34 117 -71 117 C-71 111.72 -71 106.44 -71 101 C-71.33 101 -71.66 101 -72 101 Z " fill="#BBB5C7" transform="translate(95,19)"/>
<path d="M0 0 C1.44149414 0.01353516 1.44149414 0.01353516 2.91210938 0.02734375 C5.25417805 0.05064792 7.59569792 0.08335942 9.9375 0.125 C8.6175 0.455 7.2975 0.785 5.9375 1.125 C5.9375 1.785 5.9375 2.445 5.9375 3.125 C6.5975 3.125 7.2575 3.125 7.9375 3.125 C8.4325 5.105 8.4325 5.105 8.9375 7.125 C7.6175 7.455 6.2975 7.785 4.9375 8.125 C4.9375 8.785 4.9375 9.445 4.9375 10.125 C3.64779297 10.16367188 3.64779297 10.16367188 2.33203125 10.203125 C-15.01838295 11.03564215 -29.09612016 16.34633279 -41.0625 29.125 C-47.78863696 37.91775537 -51.8513205 47.30849479 -53.66796875 58.19140625 C-54.0625 60.125 -54.0625 60.125 -55.0625 61.125 C-60.43697573 61.59234572 -60.43697573 61.59234572 -62.76171875 59.85546875 C-64.0625 58.125 -64.0625 58.125 -64 54.1875 C-61.46667672 37.70756543 -52.91174191 22.45053713 -39.42333984 12.55175781 C-26.87444307 3.72688439 -15.28003658 -0.27646552 0 0 Z " fill="#E4375E" transform="translate(127.0625,73.875)"/>
<path d="M0 0 C2.85205449 1.37918694 5.14955963 2.91909088 7.390625 5.16015625 C7.640625 8.16015625 7.640625 8.16015625 7.390625 11.16015625 C5.390625 13.16015625 5.390625 13.16015625 3.140625 13.47265625 C0.390625 13.16015625 0.390625 13.16015625 -2.359375 11.66015625 C-6.56912526 9.71719459 -10.04566663 9.278438 -14.609375 10.16015625 C-17.73652298 11.83328001 -19.84156354 14.14804114 -21.984375 16.97265625 C-23.43895041 22.0636702 -23.31952516 25.79245965 -20.921875 30.41015625 C-14.48611737 38.06348965 -6.25602378 41.00922133 3.578125 41.91015625 C5.18142175 42.00882067 6.78549588 42.09806228 8.390625 42.16015625 C8.390625 42.49015625 8.390625 42.82015625 8.390625 43.16015625 C5.915625 43.65515625 5.915625 43.65515625 3.390625 44.16015625 C3.885625 46.63515625 3.885625 46.63515625 4.390625 49.16015625 C-4.36733794 51.4222479 -10.5487729 51.47445153 -18.609375 47.16015625 C-25.85216168 42.68832684 -30.89623598 37.29957332 -33.609375 29.16015625 C-34.29015319 21.62695492 -34.08205292 15.43656986 -29.609375 9.16015625 C-27.359375 6.47265625 -27.359375 6.47265625 -24.609375 4.16015625 C-24.07957031 3.69351563 -23.54976562 3.226875 -23.00390625 2.74609375 C-16.4195703 -2.27990256 -7.75205366 -2.49504721 0 0 Z " fill="#E5366D" transform="translate(135.609375,113.83984375)"/>
<path d="M0 0 C0.33 0 0.66 0 1 0 C0.91621094 0.77601562 0.83242188 1.55203125 0.74609375 2.3515625 C-1.06467618 19.03102825 -1.06467618 19.03102825 5.24609375 33.9140625 C5.82488281 34.60242188 6.40367188 35.29078125 7 36 C8.23330712 37.55923395 9.46247207 39.12175305 10.6875 40.6875 C11.27402344 41.43128906 11.86054687 42.17507812 12.46484375 42.94140625 C15.47077378 46.97225899 17.21242716 51.4594834 19.09765625 56.0859375 C20.15745362 58.33399253 21.48214683 60.33921939 22.8125 62.4375 C24.81160777 65.97163694 25.06968722 66.61355269 24.3125 70.8125 C24.08433594 71.44800781 23.85617188 72.08351563 23.62109375 72.73828125 C22.35564859 77.34641173 22.85773255 82.25775178 23 87 C18.30732011 82.9590812 16.2349326 78.73091655 14 73 C13.34 73 12.68 73 12 73 C11.87625 72.195625 11.7525 71.39125 11.625 70.5625 C11.41875 69.716875 11.2125 68.87125 11 68 C10.34 67.67 9.68 67.34 9 67 C8.896875 66.29875 8.79375 65.5975 8.6875 64.875 C7.73533707 60.89322774 5.71758637 58.03450606 3 55 C2.2575 54.62875 1.515 54.2575 0.75 53.875 C-0.11625 53.441875 -0.11625 53.441875 -1 53 C-1.625 50.6875 -1.625 50.6875 -2 48 C-2.33676758 47.23606934 -2.67353516 46.47213867 -3.02050781 45.68505859 C-4.11979016 42.6716221 -4.17772934 40.5457913 -4.046875 37.3515625 C-4.005625 36.27003906 -3.964375 35.18851563 -3.921875 34.07421875 C-3.83679688 32.36685547 -3.83679688 32.36685547 -3.75 30.625 C-3.6984375 29.46355469 -3.646875 28.30210937 -3.59375 27.10546875 C-2.51044886 5.02089771 -2.51044886 5.02089771 0 0 Z " fill="#C0B0D4" transform="translate(29,123)"/>
<path d="M0 0 C-2.05339302 3.00606439 -3.9891014 4.87698401 -7.0625 6.8125 C-9.46357041 8.3432301 -11.81365106 9.85716757 -14.07421875 11.58984375 C-20.69112391 16.6386493 -27.94944269 19.97840933 -35.51269531 23.36035156 C-40.69851784 25.71996747 -44.8214611 28.11202176 -49 32 C-49.66 31.67 -50.32 31.34 -51 31 C-44.31906313 23.3878706 -38.45440373 19.41553322 -29 16 C-27.44575743 15.25484889 -25.90201329 14.48696892 -24.375 13.6875 C-21 12 -21 12 -19 12 C-18.67 11.01 -18.34 10.02 -18 9 C-16.29381082 8.01566009 -14.58365687 7.03671543 -12.84375 6.11328125 C-10.1552536 4.48993067 -8.1794614 2.240002 -6 0 C-3 -1 -3 -1 0 0 Z " fill="#D0CEDA" transform="translate(104,18)"/>
<path d="M0 0 C0.99 0.33 1.98 0.66 3 1 C1.5665848 2.15093925 0.12811091 3.29558035 -1.3125 4.4375 C-2.51326172 5.39462891 -2.51326172 5.39462891 -3.73828125 6.37109375 C-6 8 -6 8 -9 9 C-9.556875 9.598125 -10.11375 10.19625 -10.6875 10.8125 C-14.38382084 14.30901972 -18.70413577 16.32863364 -23.578125 17.75390625 C-32.12441746 20.28116702 -37.67259349 25.05277394 -43 32 C-44.37850903 34.83193703 -45.35785769 37.53938515 -46.23828125 40.55859375 C-47.24991609 43.8010131 -49.03758336 46.2526167 -51 49 C-51.37125 49.928125 -51.7425 50.85625 -52.125 51.8125 C-53 54 -53 54 -55 55 C-54.43653072 51.45200112 -53.54502898 48.87771036 -51.6875 45.8125 C-49.31804064 41.72415539 -47.54430173 37.58685144 -45.89453125 33.1640625 C-45 31 -45 31 -43 28 C-42.34 28 -41.68 28 -41 28 C-41 27.34 -41 26.68 -41 26 C-39.36395804 24.62926214 -37.69321939 23.29944744 -36 22 C-35.608125 21.53464844 -35.21625 21.06929687 -34.8125 20.58984375 C-32.03345898 18.15219355 -28.6715838 16.95560298 -25.3125 15.5 C-17.96825224 12.21975972 -11.53050476 8.22880496 -5.09106445 3.41796875 C-3.44294084 2.20899101 -1.72592001 1.09505194 0 0 Z " fill="#BEBAC7" transform="translate(95,19)"/>
<path d="M0 0 C6 3 6 3 7.88964844 3.95141602 C11.28982122 5.66035263 14.69967226 7.33940786 18.140625 8.96484375 C25.36807937 12.41370721 31.62315949 15.90418822 37.73828125 21.16796875 C41.2035439 23.97489135 45.02682918 26.00381756 49 28 C48.67 28.66 48.34 29.32 48 30 C41.27842535 28.47453625 37.23384673 25.77796316 32.265625 21.0703125 C27.30948799 16.54142868 22.61758097 13.22657704 16 12 C13.96079307 11.27917653 11.93984972 10.50514723 9.9375 9.6875 C8.40416016 9.07455078 8.40416016 9.07455078 6.83984375 8.44921875 C3.9007767 6.94936473 2.06691478 5.5625778 0 3 C0 2.01 0 1.02 0 0 Z " fill="#D5C1EF" transform="translate(57,191)"/>
<path d="M0 0 C0.66 0.33 1.32 0.66 2 1 C0.71034824 2.37562854 -0.62689293 3.70766393 -2 5 C-2.66 5 -3.32 5 -4 5 C-4 5.66 -4 6.32 -4 7 C-4.66 7 -5.32 7 -6 7 C-6.2475 7.639375 -6.495 8.27875 -6.75 8.9375 C-9.57343818 15.85492354 -12.7203031 22.60086161 -16 29.3125 C-16.33209473 30.00641846 -16.66418945 30.70033691 -17.00634766 31.4152832 C-18.88284658 35.21208139 -20.64444688 38.28060383 -24 41 C-24.66 41 -25.32 41 -26 41 C-26.33 41.99 -26.66 42.98 -27 44 C-27.495 42.515 -27.495 42.515 -28 41 C-26.55859375 38.72265625 -26.55859375 38.72265625 -24.4375 36.0625 C-19.20920057 29.14350268 -13.86344884 21.90617034 -14 13 C-12.38513821 11.07258432 -10.89188308 9.62408228 -9 8 C-8.22914062 7.3090625 -7.45828125 6.618125 -6.6640625 5.90625 C-4.45305047 3.92540642 -2.23073295 1.95857381 0 0 Z " fill="#B7B4C0" transform="translate(58,40)"/>
<path d="M0 0 C0.66 0.33 1.32 0.66 2 1 C2.21105492 10.89613084 2.10084738 20.2648233 0 30 C-0.33 30 -0.66 30 -1 30 C-2.33407301 19.49417507 -1.97763187 10.43553958 0 0 Z " fill="#E2E1EB" transform="translate(231,101)"/>
<path d="M0 0 C0.33 0.99 0.66 1.98 1 3 C-0.1796875 4.98046875 -0.1796875 4.98046875 -1.875 7.1875 C-4.94640786 11.59553906 -5.96050082 14.68735989 -6 20 C-6.02578125 20.81726563 -6.0515625 21.63453125 -6.078125 22.4765625 C-6.16793915 27.43130986 -5.84863954 32.12032262 -5 37 C-9.08387713 32.91612287 -8.18331342 27.18418562 -8.1875 21.75 C-8.19974609 20.92886719 -8.21199219 20.10773438 -8.22460938 19.26171875 C-8.23750512 13.83690811 -7.51862187 9.21013353 -6 4 C-5.34 4.33 -4.68 4.66 -4 5 C-3.67 4.34 -3.34 3.68 -3 3 C-2.34 3 -1.68 3 -1 3 C-0.67 2.01 -0.34 1.02 0 0 Z " fill="#C4BFD1" transform="translate(35,78)"/>
<path d="M0 0 C0.66 0.66 1.32 1.32 2 2 C1.32453125 2.59425781 0.6490625 3.18851563 -0.046875 3.80078125 C-5.66818383 9.02404943 -9.00408175 13.15871719 -11.203125 20.5234375 C-12.24726526 23.76846165 -14.02944828 26.24122759 -16 29 C-16.37125 29.928125 -16.7425 30.85625 -17.125 31.8125 C-18 34 -18 34 -20 35 C-19.43653072 31.45200112 -18.54502898 28.87771036 -16.6875 25.8125 C-14.31804064 21.72415539 -12.54430173 17.58685144 -10.89453125 13.1640625 C-10 11 -10 11 -8 8 C-7.34 8 -6.68 8 -6 8 C-6 7.34 -6 6.68 -6 6 C-4.34997172 4.64613064 -2.6825613 3.31321858 -1 2 C-0.67 1.34 -0.34 0.68 0 0 Z " fill="#C5C2D0" transform="translate(60,39)"/>
<path d="M0 0 C2.8203125 0.0234375 2.8203125 0.0234375 6.125 0.375 C7.22070312 0.48585937 8.31640625 0.59671875 9.4453125 0.7109375 C10.28835937 0.80632812 11.13140625 0.90171875 12 1 C12 1.66 12 2.32 12 3 C13.98 2.67 15.96 2.34 18 2 C18.33 2.66 18.66 3.32 19 4 C15.86798865 5.04400378 14.28749061 4.98387114 11.0625 4.625 C10.20785156 4.53476563 9.35320312 4.44453125 8.47265625 4.3515625 C6.25116153 4.03571017 4.16257878 3.58811029 2 3 C1.2575 2.814375 0.515 2.62875 -0.25 2.4375 C-0.8275 2.293125 -1.405 2.14875 -2 2 C-1.34 1.34 -0.68 0.68 0 0 Z " fill="#D9BFF7" transform="translate(132,216)"/>
<path d="M0 0 C0.33 0 0.66 0 1 0 C0.87431641 1.19882813 0.87431641 1.19882813 0.74609375 2.421875 C0.03387115 10.10306052 0.10296268 17.34068135 1 25 C-2 23 -2 23 -2.7421875 20.359375 C-3.03808515 16.503739 -2.67696099 13.07592138 -2.125 9.25 C-2.03347656 8.57839844 -1.94195313 7.90679687 -1.84765625 7.21484375 C-1.14769345 2.2953869 -1.14769345 2.2953869 0 0 Z " fill="#C8C1D7" transform="translate(29,123)"/>
<path d="M0 0 C3.43927579 1.2419607 6.25207819 2.55740284 9 5 C9 5.66 9 6.32 9 7 C5.64708882 7.37254569 4.3961577 7.31050198 1.6875 5.1875 C0 3 0 3 0 0 Z " fill="#E7E6EF" transform="translate(195,40)"/>
<path d="M0 0 C0.886875 0.165 1.77375 0.33 2.6875 0.5 C8.41790827 1.34061774 14.22424581 1.0781681 20 1 C16.73868944 4.26131056 12.90037801 3.95261168 8.4375 4.1875 C5.12799373 4.00698148 2.9572158 3.4338016 0 2 C0 1.34 0 0.68 0 0 Z " fill="#CDC1DD" transform="translate(118,237)"/>
<path d="M0 0 C1.65 0 3.3 0 5 0 C5.09765625 6.15234375 5.09765625 6.15234375 5 8 C4 9 4 9 1.4375 9.0625 C0.633125 9.041875 -0.17125 9.02125 -1 9 C-1 8.34 -1 7.68 -1 7 C-0.01 6.67 0.98 6.34 2 6 C2 4.68 2 3.36 2 2 C1.34 2 0.68 2 0 2 C0 1.34 0 0.68 0 0 Z " fill="#E4306F" transform="translate(133,75)"/>
<path d="M0 0 C0.33 0 0.66 0 1 0 C1 6.93 1 13.86 1 21 C0.67 21 0.34 21 0 21 C0 14.07 0 7.14 0 0 Z " fill="#CDC3DC" transform="translate(234,137)"/>
<path d="M0 0 C0.33 0 0.66 0 1 0 C1 6.93 1 13.86 1 21 C0.67 21 0.34 21 0 21 C0 14.07 0 7.14 0 0 Z " fill="#CDC3DC" transform="translate(234,98)"/>
<path d="M0 0 C0.33 0.99 0.66 1.98 1 3 C0.00390625 4.82421875 0.00390625 4.82421875 -1.4375 6.6875 C-1.91058594 7.31011719 -2.38367187 7.93273437 -2.87109375 8.57421875 C-3.24363281 9.04472656 -3.61617187 9.51523438 -4 10 C-4.33 9.34 -4.66 8.68 -5 8 C-4.0625 5.375 -4.0625 5.375 -3 3 C-2.34 3 -1.68 3 -1 3 C-0.67 2.01 -0.34 1.02 0 0 Z " fill="#C7C2D2" transform="translate(35,78)"/>
<path d="M0 0 C5.94 0 11.88 0 18 0 C18 0.33 18 0.66 18 1 C12.06 1 6.12 1 0 1 C0 0.67 0 0.34 0 0 Z " fill="#CDC3DC" transform="translate(119,16)"/>
<path d="M0 0 C5.61 0 11.22 0 17 0 C17 0.33 17 0.66 17 1 C11.39 1 5.78 1 0 1 C0 0.67 0 0.34 0 0 Z " fill="#CDC3DC" transform="translate(101,15)"/>
<path d="M0 0 C5.28 0 10.56 0 16 0 C16 0.33 16 0.66 16 1 C10.72 1 5.44 1 0 1 C0 0.67 0 0.34 0 0 Z " fill="#CDC3DC" transform="translate(138,15)"/>
<path d="M0 0 C2.64 0 5.28 0 8 0 C8 0.33 8 0.66 8 1 C5.36 1 2.72 1 0 1 C0 0.67 0 0.34 0 0 Z " fill="#CDC3DC" transform="translate(111,240)"/>
<path d="M0 0 C0.33 0 0.66 0 1 0 C1 2.64 1 5.28 1 8 C0.67 8 0.34 8 0 8 C0 5.36 0 2.72 0 0 Z " fill="#CDC3DC" transform="translate(233,129)"/>
<path d="M0 0 C0.33 0 0.66 0 1 0 C1 2.31 1 4.62 1 7 C0.67 7 0.34 7 0 7 C0 4.69 0 2.38 0 0 Z " fill="#CDC3DC" transform="translate(233,120)"/>
<path d="M0 0 C1.65 0 3.3 0 5 0 C5 0.33 5 0.66 5 1 C3.35 1 1.7 1 0 1 C0 0.67 0 0.34 0 0 Z " fill="#CDC3DC" transform="translate(151,240)"/>
<path d="M0 0 C1.65 0 3.3 0 5 0 C5 0.33 5 0.66 5 1 C3.35 1 1.7 1 0 1 C0 0.67 0 0.34 0 0 Z " fill="#CDC3DC" transform="translate(100,240)"/>
<path d="M0 0 C0.33 0 0.66 0 1 0 C1 1.65 1 3.3 1 5 C0.67 5 0.34 5 0 5 C0 3.35 0 1.7 0 0 Z " fill="#CDC3DC" transform="translate(233,158)"/>
<path d="M0 0 C1 4 1 4 1 4 Z " fill="#CDC3DC" transform="translate(233,93)"/>
<path d="M0 0 C1 4 1 4 1 4 Z " fill="#CDC3DC" transform="translate(22,93)"/>
<path d="M0 0 C3 1 3 1 3 1 Z " fill="#CDC2DC" transform="translate(97,239)"/>
<path d="M0 0 C3 1 3 1 3 1 Z " fill="#CDC2DC" transform="translate(187,221)"/>
<path d="M0 0 C3 1 3 1 3 1 Z " fill="#CDC2DC" transform="translate(66,221)"/>
<path d="M0 0 C0.66 0.66 1.32 1.32 2 2 C1.34 2 0.68 2 0 2 C0 1.34 0 0.68 0 0 Z " fill="#CDC3DC" transform="translate(31,178)"/>
<path d="" fill="#CDC3DC" transform="translate(0,0)"/>
<path d="" fill="#CDC3DC" transform="translate(0,0)"/>
<path d="" fill="#CDC2DC" transform="translate(0,0)"/>
<path d="M0 0 C3 1 3 1 3 1 Z " fill="#CDC2DC" transform="translate(64,35)"/>
<path d="M0 0 C3 1 3 1 3 1 Z " fill="#CDC2DC" transform="translate(95,17)"/>
<path d="M0 0 C3 1 3 1 3 1 Z " fill="#CDC3DC" transform="translate(155,16)"/>
<path d="M0 0 C3 1 3 1 3 1 Z " fill="#CDC3DC" transform="translate(98,16)"/>
<path d="M0 0 C2 1 2 1 2 1 Z " fill="#CEC4DD" transform="translate(95,238)"/>
<path d="M0 0 C2 1 2 1 2 1 Z " fill="#CEC4DD" transform="translate(161,237)"/>
<path d="M0 0 C2 1 2 1 2 1 Z " fill="#CEC4DD" transform="translate(93,237)"/>
<path d="M0 0 C2 1 2 1 2 1 Z " fill="#CDC3DC" transform="translate(163,236)"/>
<path d="M0 0 C2 1 2 1 2 1 Z " fill="#CDC3DC" transform="translate(166,234)"/>
<path d="M0 0 C2 1 2 1 2 1 Z " fill="#CDC3DC" transform="translate(88,234)"/>
<path d="M0 0 C2 1 2 1 2 1 Z " fill="#CDC3DC" transform="translate(170,231)"/>
<path d="M0 0 C2 1 2 1 2 1 Z " fill="#CDC3DC" transform="translate(84,231)"/>
<path d="M0 0 C2 1 2 1 2 1 Z " fill="#CDC3DC" transform="translate(174,228)"/>
<path d="M0 0 C2 1 2 1 2 1 Z " fill="#CDC3DC" transform="translate(177,226)"/>
<path d="M0 0 C2 1 2 1 2 1 Z " fill="#CEC4DD" transform="translate(77,226)"/>
<path d="M0 0 C2 1 2 1 2 1 Z " fill="#CDC3DC" transform="translate(179,225)"/>
<path d="M0 0 C2 1 2 1 2 1 Z " fill="#CDC3DC" transform="translate(75,225)"/>
<path d="M0 0 C2 1 2 1 2 1 Z " fill="#CDC3DC" transform="translate(181,224)"/>
<path d="M0 0 C2 1 2 1 2 1 Z " fill="#CDC3DC" transform="translate(73,224)"/>
<path d="M0 0 C2 1 2 1 2 1 Z " fill="#CDC3DC" transform="translate(183,223)"/>
<path d="M0 0 C2 1 2 1 2 1 Z " fill="#CDC3DC" transform="translate(71,223)"/>
<path d="M0 0 C2 1 2 1 2 1 Z " fill="#CEC4DD" transform="translate(185,222)"/>
<path d="M0 0 C2 1 2 1 2 1 Z " fill="#CEC4DD" transform="translate(69,222)"/>
<path d="M0 0 C2 1 2 1 2 1 Z " fill="#CDC3DC" transform="translate(190,220)"/>
<path d="M0 0 C2 1 2 1 2 1 Z " fill="#CEC4DD" transform="translate(64,220)"/>
<path d="M0 0 C2 1 2 1 2 1 Z " fill="#CEC4DD" transform="translate(192,219)"/>
<path d="M0 0 C2 1 2 1 2 1 Z " fill="#CEC4DD" transform="translate(62,219)"/>
<path d="M0 0 C2 1 2 1 2 1 Z " fill="#CEC4DD" transform="translate(194,218)"/>
<path d="M0 0 C2 1 2 1 2 1 Z " fill="#CDC3DC" transform="translate(60,218)"/>
<path d="M0 0 C2 1 2 1 2 1 Z " fill="#CDC3DC" transform="translate(196,217)"/>
<path d="M0 0 C2 1 2 1 2 1 Z " fill="#CEC4DD" transform="translate(58,217)"/>
<path d="M0 0 C2 1 2 1 2 1 Z " fill="#CDC3DC" transform="translate(56,216)"/>
<path d="M0 0 C2 1 2 1 2 1 Z " fill="#CDC3DC" transform="translate(199,215)"/>
<path d="" fill="#CDC3DC" transform="translate(0,0)"/>
<path d="" fill="#CDC3DC" transform="translate(0,0)"/>
<path d="" fill="#CDC3DC" transform="translate(0,0)"/>
<path d="" fill="#CDC3DC" transform="translate(0,0)"/>
<path d="" fill="#CDC3DC" transform="translate(0,0)"/>
<path d="" fill="#CDC3DC" transform="translate(0,0)"/>
<path d="" fill="#CDC3DC" transform="translate(0,0)"/>
<path d="" fill="#CEC4DD" transform="translate(0,0)"/>
<path d="" fill="#CEC4DD" transform="translate(0,0)"/>
<path d="" fill="#CDC3DC" transform="translate(0,0)"/>
<path d="" fill="#CDC3DC" transform="translate(0,0)"/>
<path d="" fill="#CDC3DC" transform="translate(0,0)"/>
<path d="" fill="#CDC3DC" transform="translate(0,0)"/>
<path d="" fill="#CDC3DC" transform="translate(0,0)"/>
<path d="" fill="#CDC3DC" transform="translate(0,0)"/>
<path d="" fill="#CDC2DC" transform="translate(0,0)"/>
<path d="" fill="#CDC2DC" transform="translate(0,0)"/>
<path d="" fill="#CDC3DC" transform="translate(0,0)"/>
<path d="" fill="#CDC3DC" transform="translate(0,0)"/>
<path d="" fill="#CDC3DC" transform="translate(0,0)"/>
<path d="" fill="#CDC3DC" transform="translate(0,0)"/>
<path d="" fill="#CDC3DC" transform="translate(0,0)"/>
<path d="" fill="#CEC4DD" transform="translate(0,0)"/>
<path d="" fill="#CEC4DD" transform="translate(0,0)"/>
<path d="" fill="#CEC4DD" transform="translate(0,0)"/>
<path d="" fill="#CDC3DC" transform="translate(0,0)"/>
<path d="" fill="#CEC4DD" transform="translate(0,0)"/>
<path d="" fill="#CDC3DC" transform="translate(0,0)"/>
<path d="" fill="#CDC3DC" transform="translate(0,0)"/>
<path d="" fill="#CDC2DC" transform="translate(0,0)"/>
<path d="" fill="#CDC3DC" transform="translate(0,0)"/>
<path d="" fill="#CDC3DC" transform="translate(0,0)"/>
<path d="" fill="#CEC4DD" transform="translate(0,0)"/>
<path d="" fill="#CDC2DC" transform="translate(0,0)"/>
<path d="" fill="#CDC3DC" transform="translate(0,0)"/>
<path d="" fill="#CDC3DC" transform="translate(0,0)"/>
<path d="" fill="#CDC3DC" transform="translate(0,0)"/>
<path d="" fill="#CDC3DC" transform="translate(0,0)"/>
<path d="" fill="#CDC3DC" transform="translate(0,0)"/>
<path d="" fill="#CDC3DC" transform="translate(0,0)"/>
<path d="" fill="#CEC4DD" transform="translate(0,0)"/>
<path d="" fill="#CEC4DD" transform="translate(0,0)"/>
<path d="" fill="#CEC4DD" transform="translate(0,0)"/>
<path d="" fill="#CDC3DC" transform="translate(0,0)"/>
<path d="" fill="#CDC3DC" transform="translate(0,0)"/>
<path d="" fill="#CDC3DC" transform="translate(0,0)"/>
<path d="" fill="#CDC3DC" transform="translate(0,0)"/>
<path d="" fill="#CDC3DC" transform="translate(0,0)"/>
<path d="M0 0 C2 1 2 1 2 1 Z " fill="#CDC2DC" transform="translate(200,41)"/>
<path d="M0 0 C2 1 2 1 2 1 Z " fill="#CDC3DC" transform="translate(55,40)"/>
<path d="M0 0 C2 1 2 1 2 1 Z " fill="#CDC3DC" transform="translate(197,39)"/>
<path d="M0 0 C2 1 2 1 2 1 Z " fill="#CDC3DC" transform="translate(58,38)"/>
<path d="M0 0 C2 1 2 1 2 1 Z " fill="#CDC3DC" transform="translate(194,37)"/>
<path d="M0 0 C2 1 2 1 2 1 Z " fill="#CDC3DC" transform="translate(60,37)"/>
<path d="M0 0 C2 1 2 1 2 1 Z " fill="#CDC3DC" transform="translate(192,36)"/>
<path d="M0 0 C2 1 2 1 2 1 Z " fill="#CDC3DC" transform="translate(62,36)"/>
<path d="M0 0 C2 1 2 1 2 1 Z " fill="#CDC3DC" transform="translate(189,35)"/>
<path d="M0 0 C2 1 2 1 2 1 Z " fill="#CEC4DD" transform="translate(187,34)"/>
<path d="M0 0 C2 1 2 1 2 1 Z " fill="#CEC4DD" transform="translate(67,34)"/>
<path d="M0 0 C2 1 2 1 2 1 Z " fill="#CDC3DC" transform="translate(185,33)"/>
<path d="M0 0 C2 1 2 1 2 1 Z " fill="#CDC3DC" transform="translate(69,33)"/>
<path d="M0 0 C2 1 2 1 2 1 Z " fill="#CDC3DC" transform="translate(183,32)"/>
<path d="M0 0 C2 1 2 1 2 1 Z " fill="#CDC3DC" transform="translate(71,32)"/>
<path d="M0 0 C2 1 2 1 2 1 Z " fill="#CDC3DC" transform="translate(179,30)"/>
<path d="M0 0 C2 1 2 1 2 1 Z " fill="#CDC3DC" transform="translate(177,29)"/>
<path d="M0 0 C2 1 2 1 2 1 Z " fill="#CDC3DC" transform="translate(77,29)"/>
<path d="M0 0 C2 1 2 1 2 1 Z " fill="#CDC3DC" transform="translate(174,27)"/>
<path d="M0 0 C2 1 2 1 2 1 Z " fill="#CDC3DC" transform="translate(80,27)"/>
<path d="M0 0 C2 1 2 1 2 1 Z " fill="#CDC3DC" transform="translate(171,25)"/>
<path d="M0 0 C2 1 2 1 2 1 Z " fill="#CDC2DC" transform="translate(83,25)"/>
<path d="M0 0 C2 1 2 1 2 1 Z " fill="#CDC3DC" transform="translate(167,22)"/>
<path d="M0 0 C2 1 2 1 2 1 Z " fill="#CDC3DC" transform="translate(87,22)"/>
<path d="M0 0 C2 1 2 1 2 1 Z " fill="#CDC3DC" transform="translate(164,20)"/>
<path d="M0 0 C2 1 2 1 2 1 Z " fill="#CDC3DC" transform="translate(90,20)"/>
<path d="M0 0 C2 1 2 1 2 1 Z " fill="#CDC3DC" transform="translate(162,19)"/>
<path d="M0 0 C2 1 2 1 2 1 Z " fill="#CDC3DC" transform="translate(160,18)"/>
<path d="M0 0 C2 1 2 1 2 1 Z " fill="#CDC3DC" transform="translate(93,18)"/>
<path d="M0 0 C2 1 2 1 2 1 Z " fill="#CEC4DD" transform="translate(158,17)"/>
<path d="" fill="#CEC4DD" transform="translate(0,0)"/>
<path d="" fill="#CEC4DD" transform="translate(0,0)"/>
<path d="" fill="#CEC4DD" transform="translate(0,0)"/>
<path d="" fill="#CEC4DD" transform="translate(0,0)"/>
<path d="" fill="#CEC4DD" transform="translate(0,0)"/>
<path d="" fill="#CEC4DD" transform="translate(0,0)"/>
<path d="" fill="#CEC4DD" transform="translate(0,0)"/>
<path d="" fill="#CEC4DD" transform="translate(0,0)"/>
<path d="" fill="#CEC4DD" transform="translate(0,0)"/>
<path d="" fill="#CEC4DD" transform="translate(0,0)"/>
<path d="" fill="#CEC4DD" transform="translate(0,0)"/>
<path d="" fill="#CEC4DD" transform="translate(0,0)"/>
<path d="" fill="#CEC4DD" transform="translate(0,0)"/>
<path d="" fill="#CEC4DD" transform="translate(0,0)"/>
<path d="" fill="#CEC4DD" transform="translate(0,0)"/>
<path d="" fill="#CEC4DD" transform="translate(0,0)"/>
<path d="" fill="#CEC4DD" transform="translate(0,0)"/>
<path d="" fill="#CEC4DD" transform="translate(0,0)"/>
<path d="" fill="#CDC2DC" transform="translate(0,0)"/>
<path d="" fill="#CEC4DD" transform="translate(0,0)"/>
<path d="" fill="#CEC4DD" transform="translate(0,0)"/>
<path d="" fill="#CEC4DD" transform="translate(0,0)"/>
<path d="" fill="#CEC4DD" transform="translate(0,0)"/>
<path d="" fill="#CEC4DD" transform="translate(0,0)"/>
<path d="" fill="#CEC4DD" transform="translate(0,0)"/>
<path d="" fill="#CEC4DD" transform="translate(0,0)"/>
<path d="" fill="#CEC4DD" transform="translate(0,0)"/>
<path d="" fill="#CEC4DD" transform="translate(0,0)"/>
<path d="" fill="#CEC4DD" transform="translate(0,0)"/>
<path d="" fill="#CEC4DD" transform="translate(0,0)"/>
<path d="" fill="#CEC4DD" transform="translate(0,0)"/>
<path d="" fill="#CEC4DD" transform="translate(0,0)"/>
<path d="" fill="#CEC4DD" transform="translate(0,0)"/>
<path d="" fill="#CEC4DD" transform="translate(0,0)"/>
<path d="" fill="#CEC4DD" transform="translate(0,0)"/>
<path d="" fill="#CEC4DD" transform="translate(0,0)"/>
<path d="" fill="#CEC4DD" transform="translate(0,0)"/>
<path d="" fill="#CEC4DD" transform="translate(0,0)"/>
<path d="" fill="#CEC4DD" transform="translate(0,0)"/>
<path d="" fill="#CEC4DD" transform="translate(0,0)"/>
<path d="" fill="#CEC4DD" transform="translate(0,0)"/>
<path d="" fill="#CEC4DD" transform="translate(0,0)"/>
<path d="" fill="#CEC4DD" transform="translate(0,0)"/>
<path d="" fill="#CEC4DD" transform="translate(0,0)"/>
<path d="" fill="#CEC4DD" transform="translate(0,0)"/>
<path d="" fill="#CEC4DD" transform="translate(0,0)"/>
<path d="" fill="#CEC4DD" transform="translate(0,0)"/>
<path d="" fill="#CEC4DD" transform="translate(0,0)"/>
<path d="" fill="#CEC4DD" transform="translate(0,0)"/>
<path d="" fill="#CEC4DD" transform="translate(0,0)"/>
<path d="" fill="#CEC4DD" transform="translate(0,0)"/>
<path d="" fill="#CEC4DD" transform="translate(0,0)"/>
<path d="" fill="#CEC4DD" transform="translate(0,0)"/>
<path d="" fill="#CEC4DD" transform="translate(0,0)"/>
<path d="" fill="#CEC4DD" transform="translate(0,0)"/>
<path d="" fill="#CEC4DD" transform="translate(0,0)"/>
<path d="" fill="#CEC4DD" transform="translate(0,0)"/>
<path d="" fill="#CEC4DD" transform="translate(0,0)"/>
<path d="" fill="#CEC4DD" transform="translate(0,0)"/>
<path d="" fill="#CEC4DD" transform="translate(0,0)"/>
<path d="" fill="#CEC4DD" transform="translate(0,0)"/>
<path d="" fill="#CEC4DD" transform="translate(0,0)"/>
<path d="" fill="#CEC4DD" transform="translate(0,0)"/>
<path d="" fill="#CEC4DD" transform="translate(0,0)"/>
<path d="" fill="#CEC4DD" transform="translate(0,0)"/>
<path d="" fill="#CEC4DD" transform="translate(0,0)"/>
<path d="" fill="#CEC4DD" transform="translate(0,0)"/>
<path d="" fill="#CEC4DD" transform="translate(0,0)"/>
<path d="" fill="#CEC4DD" transform="translate(0,0)"/>
<path d="" fill="#CEC4DD" transform="translate(0,0)"/>
<path d="" fill="#CEC4DD" transform="translate(0,0)"/>
<path d="" fill="#CEC4DD" transform="translate(0,0)"/>
<path d="" fill="#CEC4DD" transform="translate(0,0)"/>
<path d="" fill="#CEC4DD" transform="translate(0,0)"/>
<path d="" fill="#CEC4DD" transform="translate(0,0)"/>
<path d="" fill="#CEC4DD" transform="translate(0,0)"/>
<path d="" fill="#CEC4DD" transform="translate(0,0)"/>
<path d="" fill="#CEC4DD" transform="translate(0,0)"/>
<path d="" fill="#CEC4DD" transform="translate(0,0)"/>
<path d="" fill="#CEC4DD" transform="translate(0,0)"/>
<path d="" fill="#CEC4DD" transform="translate(0,0)"/>
<path d="" fill="#CEC4DD" transform="translate(0,0)"/>
<path d="" fill="#CEC4DD" transform="translate(0,0)"/>
<path d="" fill="#CEC4DD" transform="translate(0,0)"/>
<path d="" fill="#CEC4DD" transform="translate(0,0)"/>
<path d="" fill="#CEC4DD" transform="translate(0,0)"/>
<path d="" fill="#CEC4DD" transform="translate(0,0)"/>
<path d="" fill="#CEC4DD" transform="translate(0,0)"/>
<path d="" fill="#CEC4DD" transform="translate(0,0)"/>
<path d="" fill="#CEC4DD" transform="translate(0,0)"/>
<path d="" fill="#CEC4DD" transform="translate(0,0)"/>
<path d="" fill="#CEC4DD" transform="translate(0,0)"/>
<path d="" fill="#CEC4DD" transform="translate(0,0)"/>
<path d="" fill="#CEC4DD" transform="translate(0,0)"/>
</svg>
